<svg xmlns="http://www.w3.org/2000/svg" version="1.1" xmlns:xlink="http://www.w3.org/1999/xlink" xmlns:svgjs="http://svgjs.dev/svgjs" width="1440" height="560" preserveAspectRatio="none" viewBox="0 0 1440 560"><g mask="url(&quot;#SvgjsMask1000&quot;)" fill="none"><rect width="1440" height="560" x="0" y="0" fill="#0e2a47"></rect><path d="M370.33 388.11L357.71 390.26 352.84 378.42 340.21 380.57 335.34 368.73 322.72 370.88 317.84 359.04M374.21 381.11L361.58 383.26 356.71 371.42 344.09 373.57 339.22 361.73 326.59 363.88 321.72 352.04M378.08 374.11L365.46 376.26 360.59 364.42 347.96 366.57 343.09 354.73 330.47 356.88 325.6 345.04" stroke="#d3b714" stroke-width="1.31" stroke-dasharray="4, 4"></path><path d="M384.89 207.24L395.3 214.7 390.31 226.49 400.71 233.95 395.72 245.74 406.12 253.21 401.13 265M377.19 209.4L387.6 216.86 382.6 228.65 393.01 236.12 388.02 247.91 398.42 255.37 393.43 267.16" stroke="#e73635" stroke-width="1" stroke-dasharray="3, 2"></path><path d="M1105.1 279.54L1114.01 288.74 1106.99 299.45 1115.9 308.65 1108.89 319.36 1117.8 328.56 1110.78 339.27M1097.14 280.3L1106.05 289.5 1099.03 300.21 1107.94 309.41 1100.92 320.12 1109.83 329.32 1102.81 340.03M1089.17 281.05L1098.08 290.25 1091.07 300.97 1099.98 310.16 1092.96 320.88 1101.87 330.07 1094.85 340.79" stroke="#d3b714" stroke-width="1"></path><circle r="78.93456457778407" cx="1242.14" cy="256.73" fill="#d3b714"></circle><circle r="46.666666666666664" cx="55.84" cy="227.52" stroke="#e73635" stroke-width="1"></circle><path d="M554.28 376.04L547.45 365.21 556.52 356.17 549.69 345.33 558.77 336.29 551.94 325.46 561.01 316.42" stroke="#037b0b" stroke-width="1" stroke-dasharray="3, 2"></path><circle r="46.666666666666664" cx="1077.39" cy="128.42" stroke="#e73635" stroke-width="2.31" stroke-dasharray="2, 2"></circle><circle r="60.62148773481953" cx="372.89" cy="38.83" stroke="#d3b714" stroke-width="2.04" stroke-dasharray="3, 3"></circle><rect width="228.6" height="228.6" clip-path="url(&quot;#SvgjsClipPath1001&quot;)" x="36.22" y="-65.95" fill="url(&quot;#SvgjsPattern1002&quot;)" transform="rotate(170.27, 150.52, 48.35)"></rect><rect width="179.84" height="179.84" clip-path="url(&quot;#SvgjsClipPath1003&quot;)" x="889.2" y="-19.71" fill="url(&quot;#SvgjsPattern1004&quot;)" transform="rotate(293.27, 979.12, 70.21)"></rect><path d="M755.25 375.38L744.43 368.53 748.73 356.47 737.91 349.62 742.22 337.56 731.4 330.71 735.7 318.65" stroke="#e73635" stroke-width="2.41"></path><rect width="119.55999999999999" height="119.55999999999999" clip-path="url(&quot;#SvgjsClipPath1005&quot;)" x="1013.97" y="493.8" fill="url(&quot;#SvgjsPattern1006&quot;)" transform="rotate(102.53, 1073.75, 553.58)"></rect></g><defs><mask id="SvgjsMask1000"><rect width="1440" height="560" fill="#ffffff"></rect></mask><pattern x="0" y="0" width="7.62" height="7.62" patternUnits="userSpaceOnUse" id="SvgjsPattern1002"><path d="M0 7.62L3.81 0L7.62 7.62" stroke="#d3b714" fill="none"></path></pattern><clipPath id="SvgjsClipPath1001"><circle r="57.15" cx="150.52" cy="48.35"></circle></clipPath><pattern x="0" y="0" width="179.84" height="11.24" patternUnits="userSpaceOnUse" id="SvgjsPattern1004"><rect width="179.84" height="5.62" x="0" y="0" fill="#d3b714"></rect><rect width="179.84" height="5.62" x="0" y="5.62" fill="rgba(0, 0, 0, 0)"></rect></pattern><clipPath id="SvgjsClipPath1003"><circle r="44.96" cx="979.12" cy="70.21"></circle></clipPath><pattern x="0" y="0" width="8.54" height="8.54" patternUnits="userSpaceOnUse" id="SvgjsPattern1006"><path d="M0 8.54L4.27 0L8.54 8.54" stroke="#037b0b" fill="none"></path></pattern><clipPath id="SvgjsClipPath1005"><circle r="29.889999999999997" cx="1073.75" cy="553.58"></circle></clipPath></defs></svg>