<svg xmlns="http://www.w3.org/2000/svg" version="1.1" xmlns:xlink="http://www.w3.org/1999/xlink" 
xmlns:svgjs="http://svgjs.dev/svgjs" width="1140" height="560" preserveAspectRatio="none" viewBox="0 0 1440 560"><g mask="url(&quot;#SvgjsMask1000&quot;)" fill="none"><rect width="1440" height="560" x="0" y="0" fill="#0e2a47"></rect><path d="M1396.85 74.91a5.89 5.89 0 1 0 9.42 7.08z" stroke="#e73635"></path><path d="M498.06 326.13L533.18 326.13L533.18 361.25L498.06 361.25z" fill="#d3b714"></path><path d="M693.42 187.45 a12.71 12.71 0 1 0 25.42 0 a12.71 12.71 0 1 0 -25.42 0z" stroke="#d3b714"></path><path d="M39.1 309.8L66.73 309.8L66.73 337.43L39.1 337.43z" stroke="#e73635"></path><path d="M935.33 512.25a3.33 3.33 0 1 0-4.85-4.57z" stroke="#d3b714"></path><path d="M600.16 366.27L644.09 366.27L644.09 398.3L600.16 398.3z" fill="#d3b714"></path><path d="M794.97 162.95a2.12 2.12 0 1 0-3.62 2.19z" stroke="#e73635"></path><path d="M1080.92 542.49L1086.04 542.49L1086.04 547.61L1080.92 547.61z" fill="#037b0b"></path><path d="M1345.8 67.15 a21.95 21.95 0 1 0 43.9 0 a21.95 21.95 0 1 0 -43.9 0z" fill="#037b0b"></path><path d="M216.64 184.16 a37.84 37.84 0 1 0 75.68 0 a37.84 37.84 0 1 0 -75.68 0z" fill="#d3b714"></path><path d="M46.07 497.29L101.54 497.29L101.54 552.76L46.07 552.76z" fill="#037b0b"></path><path d="M38.38 71.54L59.27 71.54L59.27 92.43L38.38 92.43z" fill="#e73635"></path><path d="M1212.4 553.14a3.07 3.07 0 1 0-4.5 4.17z" stroke="#037b0b"></path><path d="M783.42 208.67a9.61 9.61 0 1 0-10.94-15.81z" stroke="#d3b714"></path><path d="M701.15 362.47a2.77 2.77 0 1 0-4.1 3.73z" fill="#037b0b"></path><path d="M547.83 366.91L571.61 366.91L571.61 390.69L547.83 390.69z" fill="#037b0b"></path><path d="M939.51 498.7a35.91 35.91 0 1 0-9.64-71.18z" fill="#e73635"></path><path d="M1312.66 324.7 a6.17 6.17 0 1 0 12.34 0 a6.17 6.17 0 1 0 -12.34 0z" fill="#d3b714"></path><path d="M825.21-17.35a29.82 29.82 0 1 0-25.8 53.77z" stroke="#e73635"></path><path d="M21.26 43.77L66.03 43.77L66.03 88.54L21.26 88.54z" stroke="#e73635"></path><path d="M14.57 49.27L19.31 49.27L19.31 54.01L14.57 54.01z" stroke="#037b0b"></path><path d="M1273.45 277.6a54.25 54.25 0 1 0 98.9-44.62z" stroke="#e73635"></path><path d="M1380.24 369.12L1426.28 369.12L1426.28 408.32L1380.24 408.32z" stroke="#037b0b"></path><path d="M289 374.66a16.2 16.2 0 1 0-6.93-31.65z" fill="#037b0b"></path><path d="M336.75 97.7L370.67 97.7L370.67 131.62L336.75 131.62z" stroke="#e73635"></path><path d="M404.25 170.65 a46.58 46.58 0 1 0 93.16 0 a46.58 46.58 0 1 0 -93.16 0z" fill="#d3b714"></path><path d="M1048.69 382.06a17.83 17.83 0 1 0 35.66-0.44z" stroke="#037b0b"></path><path d="M1382.53 60.55a41.1 41.1 0 1 0-81.03-13.78z" stroke="#e73635"></path><path d="M154.75 43.54L162.35 43.54L162.35 51.14L154.75 51.14z" fill="#e73635"></path><path d="M265.45 301.19a30.46 30.46 0 1 0-60.91-1.03z" fill="#e73635"></path><path d="M735.18 413.44L770.31 413.44L770.31 468.93L735.18 468.93z" fill="#d3b714"></path><path d="M369.07 479.43a27.05 27.05 0 1 0 12.45 52.64z" fill="#e73635"></path><path d="M743.18 180.91L751.51 180.91L751.51 220.33L743.18 220.33z" fill="#e73635"></path></g><defs><mask id="SvgjsMask1000"><rect width="1440" height="560" fill="#ffffff"></rect></mask></defs></svg>