<svg xmlns="http://www.w3.org/2000/svg" version="1.1" xmlns:xlink="http://www.w3.org/1999/xlink" xmlns:svgjs="http://svgjs.dev/svgjs" width="1440" height="560" preserveAspectRatio="none" viewBox="0 0 1440 560"><g mask="url(&quot;#SvgjsMask1000&quot;)" fill="none"><rect width="1440" height="560" x="0" y="0" fill="#0e2a47"></rect><g transform="translate(0, 0)" stroke-linecap="round"><path d="M260 169.8 L260 390.2" stroke-width="15" stroke="#3a7cc3"></path><path d="M280 255.24 L280 304.76" stroke-width="15" stroke="#dd1133"></path><path d="M300 229.75 L300 330.25" stroke-width="15" stroke="#dd1133"></path><path d="M320 178.17 L320 381.83" stroke-width="15" stroke="#3a7cc3"></path><path d="M340 166.36 L340 393.64" stroke-width="15" stroke="#3a7cc3"></path><path d="M360 119.6 L360 440.4" stroke-width="15" stroke="#3a7cc3"></path><path d="M380 191.83 L380 368.17" stroke-width="15" stroke="#3a7cc3"></path><path d="M400 226.54 L400 333.46" stroke-width="15" stroke="#dd1133"></path><path d="M420 250.97 L420 309.04" stroke-width="15" stroke="#3a7cc3"></path><path d="M440 226.25 L440 333.75" stroke-width="15" stroke="#3a7cc3"></path><path d="M460 112.34 L460 447.65" stroke-width="15" stroke="#3a7cc3"></path><path d="M480 237.93 L480 322.07" stroke-width="15" stroke="#dd1133"></path><path d="M500 228.41 L500 331.59" stroke-width="15" stroke="#dd1133"></path><path d="M520 197.97 L520 362.02" stroke-width="15" stroke="#3a7cc3"></path><path d="M540 232.62 L540 327.38" stroke-width="15" stroke="#dd1133"></path><path d="M560 132.73 L560 427.27" stroke-width="15" stroke="#dd1133"></path><path d="M580 137.39 L580 422.61" stroke-width="15" stroke="#3a7cc3"></path><path d="M600 155.97 L600 404.03" stroke-width="15" stroke="#dd1133"></path><path d="M620 162.98 L620 397.02" stroke-width="15" stroke="#3a7cc3"></path><path d="M640 188.83 L640 371.17" stroke-width="15" stroke="#3a7cc3"></path><path d="M660 123.66 L660 436.34" stroke-width="15" stroke="#dd1133"></path><path d="M680 145.65 L680 414.35" stroke-width="15" stroke="#dd1133"></path><path d="M700 153.98 L700 406.02" stroke-width="15" stroke="#3a7cc3"></path><path d="M720 148.16 L720 411.84" stroke-width="15" stroke="#dd1133"></path><path d="M740 153.71 L740 406.29" stroke-width="15" stroke="#dd1133"></path><path d="M760 166 L760 394" stroke-width="15" stroke="#3a7cc3"></path><path d="M780 228.96 L780 331.04" stroke-width="15" stroke="#dd1133"></path><path d="M800 213.38 L800 346.62" stroke-width="15" stroke="#dd1133"></path><path d="M820 204.7 L820 355.3" stroke-width="15" stroke="#dd1133"></path><path d="M840 123.55 L840 436.45" stroke-width="15" stroke="#dd1133"></path><path d="M860 118.71 L860 441.29" stroke-width="15" stroke="#dd1133"></path><path d="M880 178 L880 382" stroke-width="15" stroke="#dd1133"></path><path d="M900 225.94 L900 334.06" stroke-width="15" stroke="#3a7cc3"></path><path d="M920 107.94 L920 452.06" stroke-width="15" stroke="#dd1133"></path><path d="M940 221.12 L940 338.88" stroke-width="15" stroke="#dd1133"></path><path d="M960 137.13 L960 422.87" stroke-width="15" stroke="#dd1133"></path><path d="M980 230.32 L980 329.68" stroke-width="15" stroke="#dd1133"></path><path d="M1000 229.49 L1000 330.51" stroke-width="15" stroke="#dd1133"></path><path d="M1020 196.64 L1020 363.36" stroke-width="15" stroke="#dd1133"></path><path d="M1040 145.07 L1040 414.93" stroke-width="15" stroke="#3a7cc3"></path><path d="M1060 127.6 L1060 432.4" stroke-width="15" stroke="#dd1133"></path><path d="M1080 167.38 L1080 392.62" stroke-width="15" stroke="#dd1133"></path><path d="M1100 139.72 L1100 420.28" stroke-width="15" stroke="#3a7cc3"></path><path d="M1120 136.83 L1120 423.17" stroke-width="15" stroke="#3a7cc3"></path><path d="M1140 114.32 L1140 445.68" stroke-width="15" stroke="#dd1133"></path><path d="M1160 114.17 L1160 445.83" stroke-width="15" stroke="#3a7cc3"></path><path d="M1180 208.86 L1180 351.14" stroke-width="15" stroke="#3a7cc3"></path></g></g><defs><mask id="SvgjsMask1000"><rect width="1440" height="560" fill="#ffffff"></rect></mask></defs></svg>