<svg xmlns="http://www.w3.org/2000/svg" version="1.1" xmlns:xlink="http://www.w3.org/1999/xlink" xmlns:svgjs="http://svgjs.dev/svgjs" width="1440" height="250" preserveAspectRatio="none" viewBox="0 0 1440 250"><g mask="url(&quot;#SvgjsMask1000&quot;)" fill="none"><rect width="1440" height="250" x="0" y="0" fill="#0e2a47"></rect><path d="M38 250L288 0L478.5 0L228.5 250z" fill="url(&quot;#SvgjsLinearGradient1001&quot;)"></path><path d="M278.6 250L528.6 0L581.1 0L331.1 250z" fill="url(&quot;#SvgjsLinearGradient1001&quot;)"></path><path d="M496.20000000000005 250L746.2 0L1055.2 0L805.2 250z" fill="url(&quot;#SvgjsLinearGradient1001&quot;)"></path><path d="M755.8000000000001 250L1005.8000000000001 0L1313.3000000000002 0L1063.3000000000002 250z" fill="url(&quot;#SvgjsLinearGradient1001&quot;)"></path><path d="M1436 250L1186 0L875.5 0L1125.5 250z" fill="url(&quot;#SvgjsLinearGradient1002&quot;)"></path><path d="M1181.4 250L931.4000000000001 0L686.9000000000001 0L936.9000000000001 250z" fill="url(&quot;#SvgjsLinearGradient1002&quot;)"></path><path d="M940.8 250L690.8 0L581.3 0L831.3 250z" fill="url(&quot;#SvgjsLinearGradient1002&quot;)"></path><path d="M720.1999999999999 250L470.19999999999993 0L294.69999999999993 0L544.6999999999999 250z" fill="url(&quot;#SvgjsLinearGradient1002&quot;)"></path><path d="M1247.680446504273 250L1440 57.68044650427299L1440 250z" fill="url(&quot;#SvgjsLinearGradient1001&quot;)"></path><path d="M0 250L192.319553495727 250L 0 57.68044650427299z" fill="url(&quot;#SvgjsLinearGradient1002&quot;)"></path></g><defs><mask id="SvgjsMask1000"><rect width="1440" height="250" fill="#ffffff"></rect></mask><linearGradient x1="0%" y1="100%" x2="100%" y2="0%" id="SvgjsLinearGradient1001"><stop stop-color="rgba(15, 70, 185, 0.2)" offset="0"></stop><stop stop-opacity="0" stop-color="rgba(15, 70, 185, 0.2)" offset="0.66"></stop></linearGradient><linearGradient x1="100%" y1="100%" x2="0%" y2="0%" id="SvgjsLinearGradient1002"><stop stop-color="rgba(15, 70, 185, 0.2)" offset="0"></stop><stop stop-opacity="0" stop-color="rgba(15, 70, 185, 0.2)" offset="0.66"></stop></linearGradient></defs></svg>