<svg xmlns="http://www.w3.org/2000/svg" version="1.1" xmlns:xlink="http://www.w3.org/1999/xlink" xmlns:svgjs="http://svgjs.dev/svgjs" width="1440" height="560" preserveAspectRatio="none" viewBox="0 0 1440 560"><g mask="url(&quot;#SvgjsMask1000&quot;)" fill="none"><rect width="1440" height="560" x="0" y="0" fill="#0e2a47"></rect><path d="M1.31 -26.59L66.26 10.91L66.26 85.91L1.31 123.41L-63.64 85.91L-63.64 10.91zM66.26 85.91L131.22 123.41L131.22 198.41L66.26 235.91L1.31 198.41L1.31 123.41zM131.22 -26.59L196.17 10.91L196.17 85.91L131.22 123.41L66.26 85.91L66.26 10.91zM196.17 85.91L261.13 123.41L261.13 198.41L196.17 235.91L131.22 198.41L131.22 123.41zM196.17 310.91L261.13 348.41L261.13 423.41L196.17 460.91L131.22 423.41L131.22 348.41zM131.22 423.41L196.17 460.91L196.17 535.91L131.22 573.41L66.26 535.91L66.26 460.91zM326.08 85.91L391.03 123.41L391.03 198.41L326.08 235.91L261.13 198.41L261.13 123.41zM261.13 198.41L326.08 235.91L326.08 310.91L261.13 348.41L196.17 310.91L196.17 235.91zM261.13 423.41L326.08 460.91L326.08 535.91L261.13 573.41L196.17 535.91L196.17 460.91zM391.03 423.41L455.99 460.91L455.99 535.91L391.03 573.41L326.08 535.91L326.08 460.91zM520.94 198.41L585.89 235.91L585.89 310.91L520.94 348.41L455.99 310.91L455.99 235.91zM585.89 310.91L650.85 348.41L650.85 423.41L585.89 460.91L520.94 423.41L520.94 348.41zM585.89 535.91L650.85 573.41L650.85 648.41L585.89 685.91L520.94 648.41L520.94 573.41zM715.8 85.91L780.75 123.41L780.75 198.41L715.8 235.91L650.85 198.41L650.85 123.41zM650.85 198.41L715.8 235.91L715.8 310.91L650.85 348.41L585.89 310.91L585.89 235.91zM715.8 310.91L780.75 348.41L780.75 423.41L715.8 460.91L650.85 423.41L650.85 348.41zM650.85 423.41L715.8 460.91L715.8 535.91L650.85 573.41L585.89 535.91L585.89 460.91zM780.75 -26.59L845.71 10.91L845.71 85.91L780.75 123.41L715.8 85.91L715.8 10.91zM780.75 198.41L845.71 235.91L845.71 310.91L780.75 348.41L715.8 310.91L715.8 235.91zM780.75 423.41L845.71 460.91L845.71 535.91L780.75 573.41L715.8 535.91L715.8 460.91zM845.71 535.91L910.66 573.41L910.66 648.41L845.71 685.91L780.75 648.41L780.75 573.41zM910.66 198.41L975.62 235.91L975.62 310.91L910.66 348.41L845.71 310.91L845.71 235.91zM975.62 310.91L1040.57 348.41L1040.57 423.41L975.62 460.91L910.66 423.41L910.66 348.41zM910.66 423.41L975.62 460.91L975.62 535.91L910.66 573.41L845.71 535.91L845.71 460.91zM1040.57 -26.59L1105.52 10.91L1105.52 85.91L1040.57 123.41L975.62 85.91L975.62 10.91zM1105.52 85.91L1170.48 123.41L1170.48 198.41L1105.52 235.91L1040.57 198.41L1040.57 123.41zM1105.52 535.91L1170.48 573.41L1170.48 648.41L1105.52 685.91L1040.57 648.41L1040.57 573.41zM1235.43 85.91L1300.38 123.41L1300.38 198.41L1235.43 235.91L1170.48 198.41L1170.48 123.41zM1170.48 198.41L1235.43 235.91L1235.43 310.91L1170.48 348.41L1105.52 310.91L1105.52 235.91zM1235.43 310.91L1300.38 348.41L1300.38 423.41L1235.43 460.91L1170.48 423.41L1170.48 348.41zM1170.48 423.41L1235.43 460.91L1235.43 535.91L1170.48 573.41L1105.52 535.91L1105.52 460.91zM1235.43 535.91L1300.38 573.41L1300.38 648.41L1235.43 685.91L1170.48 648.41L1170.48 573.41zM1300.38 198.41L1365.34 235.91L1365.34 310.91L1300.38 348.41L1235.43 310.91L1235.43 235.91zM1300.38 423.41L1365.34 460.91L1365.34 535.91L1300.38 573.41L1235.43 535.91L1235.43 460.91zM1430.29 -26.59L1495.25 10.91L1495.25 85.91L1430.29 123.41L1365.34 85.91L1365.34 10.91zM1430.29 198.41L1495.25 235.91L1495.25 310.91L1430.29 348.41L1365.34 310.91L1365.34 235.91zM1430.29 423.41L1495.25 460.91L1495.25 535.91L1430.29 573.41L1365.34 535.91L1365.34 460.91z" stroke="#03305d" stroke-width="2"></path><path d="M-6.19 -26.59 a7.5 7.5 0 1 0 15 0 a7.5 7.5 0 1 0 -15 0zM58.76 10.91 a7.5 7.5 0 1 0 15 0 a7.5 7.5 0 1 0 -15 0zM58.76 85.91 a7.5 7.5 0 1 0 15 0 a7.5 7.5 0 1 0 -15 0zM-6.19 123.41 a7.5 7.5 0 1 0 15 0 a7.5 7.5 0 1 0 -15 0zM-71.14 85.91 a7.5 7.5 0 1 0 15 0 a7.5 7.5 0 1 0 -15 0zM-71.14 10.91 a7.5 7.5 0 1 0 15 0 a7.5 7.5 0 1 0 -15 0zM123.72 123.41 a7.5 7.5 0 1 0 15 0 a7.5 7.5 0 1 0 -15 0zM123.72 198.41 a7.5 7.5 0 1 0 15 0 a7.5 7.5 0 1 0 -15 0zM58.76 235.91 a7.5 7.5 0 1 0 15 0 a7.5 7.5 0 1 0 -15 0zM-6.19 198.41 a7.5 7.5 0 1 0 15 0 a7.5 7.5 0 1 0 -15 0zM123.72 -26.59 a7.5 7.5 0 1 0 15 0 a7.5 7.5 0 1 0 -15 0zM188.67 10.91 a7.5 7.5 0 1 0 15 0 a7.5 7.5 0 1 0 -15 0zM188.67 85.91 a7.5 7.5 0 1 0 15 0 a7.5 7.5 0 1 0 -15 0zM253.63 123.41 a7.5 7.5 0 1 0 15 0 a7.5 7.5 0 1 0 -15 0zM253.63 198.41 a7.5 7.5 0 1 0 15 0 a7.5 7.5 0 1 0 -15 0zM188.67 235.91 a7.5 7.5 0 1 0 15 0 a7.5 7.5 0 1 0 -15 0zM188.67 310.91 a7.5 7.5 0 1 0 15 0 a7.5 7.5 0 1 0 -15 0zM253.63 348.41 a7.5 7.5 0 1 0 15 0 a7.5 7.5 0 1 0 -15 0zM253.63 423.41 a7.5 7.5 0 1 0 15 0 a7.5 7.5 0 1 0 -15 0zM188.67 460.91 a7.5 7.5 0 1 0 15 0 a7.5 7.5 0 1 0 -15 0zM123.72 423.41 a7.5 7.5 0 1 0 15 0 a7.5 7.5 0 1 0 -15 0zM123.72 348.41 a7.5 7.5 0 1 0 15 0 a7.5 7.5 0 1 0 -15 0zM188.67 535.91 a7.5 7.5 0 1 0 15 0 a7.5 7.5 0 1 0 -15 0zM123.72 573.41 a7.5 7.5 0 1 0 15 0 a7.5 7.5 0 1 0 -15 0zM58.76 535.91 a7.5 7.5 0 1 0 15 0 a7.5 7.5 0 1 0 -15 0zM58.76 460.91 a7.5 7.5 0 1 0 15 0 a7.5 7.5 0 1 0 -15 0zM318.58 85.91 a7.5 7.5 0 1 0 15 0 a7.5 7.5 0 1 0 -15 0zM383.53 123.41 a7.5 7.5 0 1 0 15 0 a7.5 7.5 0 1 0 -15 0zM383.53 198.41 a7.5 7.5 0 1 0 15 0 a7.5 7.5 0 1 0 -15 0zM318.58 235.91 a7.5 7.5 0 1 0 15 0 a7.5 7.5 0 1 0 -15 0zM318.58 310.91 a7.5 7.5 0 1 0 15 0 a7.5 7.5 0 1 0 -15 0zM318.58 460.91 a7.5 7.5 0 1 0 15 0 a7.5 7.5 0 1 0 -15 0zM318.58 535.91 a7.5 7.5 0 1 0 15 0 a7.5 7.5 0 1 0 -15 0zM253.63 573.41 a7.5 7.5 0 1 0 15 0 a7.5 7.5 0 1 0 -15 0zM383.53 423.41 a7.5 7.5 0 1 0 15 0 a7.5 7.5 0 1 0 -15 0zM448.49 460.91 a7.5 7.5 0 1 0 15 0 a7.5 7.5 0 1 0 -15 0zM448.49 535.91 a7.5 7.5 0 1 0 15 0 a7.5 7.5 0 1 0 -15 0zM383.53 573.41 a7.5 7.5 0 1 0 15 0 a7.5 7.5 0 1 0 -15 0zM513.44 198.41 a7.5 7.5 0 1 0 15 0 a7.5 7.5 0 1 0 -15 0zM578.39 235.91 a7.5 7.5 0 1 0 15 0 a7.5 7.5 0 1 0 -15 0zM578.39 310.91 a7.5 7.5 0 1 0 15 0 a7.5 7.5 0 1 0 -15 0zM513.44 348.41 a7.5 7.5 0 1 0 15 0 a7.5 7.5 0 1 0 -15 0zM448.49 310.91 a7.5 7.5 0 1 0 15 0 a7.5 7.5 0 1 0 -15 0zM448.49 235.91 a7.5 7.5 0 1 0 15 0 a7.5 7.5 0 1 0 -15 0zM643.35 348.41 a7.5 7.5 0 1 0 15 0 a7.5 7.5 0 1 0 -15 0zM643.35 423.41 a7.5 7.5 0 1 0 15 0 a7.5 7.5 0 1 0 -15 0zM578.39 460.91 a7.5 7.5 0 1 0 15 0 a7.5 7.5 0 1 0 -15 0zM513.44 423.41 a7.5 7.5 0 1 0 15 0 a7.5 7.5 0 1 0 -15 0zM578.39 535.91 a7.5 7.5 0 1 0 15 0 a7.5 7.5 0 1 0 -15 0zM643.35 573.41 a7.5 7.5 0 1 0 15 0 a7.5 7.5 0 1 0 -15 0zM643.35 648.41 a7.5 7.5 0 1 0 15 0 a7.5 7.5 0 1 0 -15 0zM578.39 685.91 a7.5 7.5 0 1 0 15 0 a7.5 7.5 0 1 0 -15 0zM513.44 648.41 a7.5 7.5 0 1 0 15 0 a7.5 7.5 0 1 0 -15 0zM513.44 573.41 a7.5 7.5 0 1 0 15 0 a7.5 7.5 0 1 0 -15 0zM708.3 85.91 a7.5 7.5 0 1 0 15 0 a7.5 7.5 0 1 0 -15 0zM773.25 123.41 a7.5 7.5 0 1 0 15 0 a7.5 7.5 0 1 0 -15 0zM773.25 198.41 a7.5 7.5 0 1 0 15 0 a7.5 7.5 0 1 0 -15 0zM708.3 235.91 a7.5 7.5 0 1 0 15 0 a7.5 7.5 0 1 0 -15 0zM643.35 198.41 a7.5 7.5 0 1 0 15 0 a7.5 7.5 0 1 0 -15 0zM643.35 123.41 a7.5 7.5 0 1 0 15 0 a7.5 7.5 0 1 0 -15 0zM708.3 310.91 a7.5 7.5 0 1 0 15 0 a7.5 7.5 0 1 0 -15 0zM773.25 348.41 a7.5 7.5 0 1 0 15 0 a7.5 7.5 0 1 0 -15 0zM773.25 423.41 a7.5 7.5 0 1 0 15 0 a7.5 7.5 0 1 0 -15 0zM708.3 460.91 a7.5 7.5 0 1 0 15 0 a7.5 7.5 0 1 0 -15 0zM708.3 535.91 a7.5 7.5 0 1 0 15 0 a7.5 7.5 0 1 0 -15 0zM773.25 -26.59 a7.5 7.5 0 1 0 15 0 a7.5 7.5 0 1 0 -15 0zM838.21 10.91 a7.5 7.5 0 1 0 15 0 a7.5 7.5 0 1 0 -15 0zM838.21 85.91 a7.5 7.5 0 1 0 15 0 a7.5 7.5 0 1 0 -15 0zM708.3 10.91 a7.5 7.5 0 1 0 15 0 a7.5 7.5 0 1 0 -15 0zM838.21 235.91 a7.5 7.5 0 1 0 15 0 a7.5 7.5 0 1 0 -15 0zM838.21 310.91 a7.5 7.5 0 1 0 15 0 a7.5 7.5 0 1 0 -15 0zM838.21 460.91 a7.5 7.5 0 1 0 15 0 a7.5 7.5 0 1 0 -15 0zM838.21 535.91 a7.5 7.5 0 1 0 15 0 a7.5 7.5 0 1 0 -15 0zM773.25 573.41 a7.5 7.5 0 1 0 15 0 a7.5 7.5 0 1 0 -15 0zM903.16 573.41 a7.5 7.5 0 1 0 15 0 a7.5 7.5 0 1 0 -15 0zM903.16 648.41 a7.5 7.5 0 1 0 15 0 a7.5 7.5 0 1 0 -15 0zM838.21 685.91 a7.5 7.5 0 1 0 15 0 a7.5 7.5 0 1 0 -15 0zM773.25 648.41 a7.5 7.5 0 1 0 15 0 a7.5 7.5 0 1 0 -15 0zM903.16 198.41 a7.5 7.5 0 1 0 15 0 a7.5 7.5 0 1 0 -15 0zM968.12 235.91 a7.5 7.5 0 1 0 15 0 a7.5 7.5 0 1 0 -15 0zM968.12 310.91 a7.5 7.5 0 1 0 15 0 a7.5 7.5 0 1 0 -15 0zM903.16 348.41 a7.5 7.5 0 1 0 15 0 a7.5 7.5 0 1 0 -15 0zM1033.07 348.41 a7.5 7.5 0 1 0 15 0 a7.5 7.5 0 1 0 -15 0zM1033.07 423.41 a7.5 7.5 0 1 0 15 0 a7.5 7.5 0 1 0 -15 0zM968.12 460.91 a7.5 7.5 0 1 0 15 0 a7.5 7.5 0 1 0 -15 0zM903.16 423.41 a7.5 7.5 0 1 0 15 0 a7.5 7.5 0 1 0 -15 0zM968.12 535.91 a7.5 7.5 0 1 0 15 0 a7.5 7.5 0 1 0 -15 0zM1033.07 -26.59 a7.5 7.5 0 1 0 15 0 a7.5 7.5 0 1 0 -15 0zM1098.02 10.91 a7.5 7.5 0 1 0 15 0 a7.5 7.5 0 1 0 -15 0zM1098.02 85.91 a7.5 7.5 0 1 0 15 0 a7.5 7.5 0 1 0 -15 0zM1033.07 123.41 a7.5 7.5 0 1 0 15 0 a7.5 7.5 0 1 0 -15 0zM968.12 85.91 a7.5 7.5 0 1 0 15 0 a7.5 7.5 0 1 0 -15 0zM968.12 10.91 a7.5 7.5 0 1 0 15 0 a7.5 7.5 0 1 0 -15 0zM1162.98 123.41 a7.5 7.5 0 1 0 15 0 a7.5 7.5 0 1 0 -15 0zM1162.98 198.41 a7.5 7.5 0 1 0 15 0 a7.5 7.5 0 1 0 -15 0zM1098.02 235.91 a7.5 7.5 0 1 0 15 0 a7.5 7.5 0 1 0 -15 0zM1033.07 198.41 a7.5 7.5 0 1 0 15 0 a7.5 7.5 0 1 0 -15 0zM1098.02 535.91 a7.5 7.5 0 1 0 15 0 a7.5 7.5 0 1 0 -15 0zM1162.98 573.41 a7.5 7.5 0 1 0 15 0 a7.5 7.5 0 1 0 -15 0zM1162.98 648.41 a7.5 7.5 0 1 0 15 0 a7.5 7.5 0 1 0 -15 0zM1098.02 685.91 a7.5 7.5 0 1 0 15 0 a7.5 7.5 0 1 0 -15 0zM1033.07 648.41 a7.5 7.5 0 1 0 15 0 a7.5 7.5 0 1 0 -15 0zM1033.07 573.41 a7.5 7.5 0 1 0 15 0 a7.5 7.5 0 1 0 -15 0zM1227.93 85.91 a7.5 7.5 0 1 0 15 0 a7.5 7.5 0 1 0 -15 0zM1292.88 123.41 a7.5 7.5 0 1 0 15 0 a7.5 7.5 0 1 0 -15 0zM1292.88 198.41 a7.5 7.5 0 1 0 15 0 a7.5 7.5 0 1 0 -15 0zM1227.93 235.91 a7.5 7.5 0 1 0 15 0 a7.5 7.5 0 1 0 -15 0zM1227.93 310.91 a7.5 7.5 0 1 0 15 0 a7.5 7.5 0 1 0 -15 0zM1162.98 348.41 a7.5 7.5 0 1 0 15 0 a7.5 7.5 0 1 0 -15 0zM1098.02 310.91 a7.5 7.5 0 1 0 15 0 a7.5 7.5 0 1 0 -15 0zM1292.88 348.41 a7.5 7.5 0 1 0 15 0 a7.5 7.5 0 1 0 -15 0zM1292.88 423.41 a7.5 7.5 0 1 0 15 0 a7.5 7.5 0 1 0 -15 0zM1227.93 460.91 a7.5 7.5 0 1 0 15 0 a7.5 7.5 0 1 0 -15 0zM1162.98 423.41 a7.5 7.5 0 1 0 15 0 a7.5 7.5 0 1 0 -15 0zM1227.93 535.91 a7.5 7.5 0 1 0 15 0 a7.5 7.5 0 1 0 -15 0zM1098.02 460.91 a7.5 7.5 0 1 0 15 0 a7.5 7.5 0 1 0 -15 0zM1292.88 573.41 a7.5 7.5 0 1 0 15 0 a7.5 7.5 0 1 0 -15 0zM1292.88 648.41 a7.5 7.5 0 1 0 15 0 a7.5 7.5 0 1 0 -15 0zM1227.93 685.91 a7.5 7.5 0 1 0 15 0 a7.5 7.5 0 1 0 -15 0zM1357.84 235.91 a7.5 7.5 0 1 0 15 0 a7.5 7.5 0 1 0 -15 0zM1357.84 310.91 a7.5 7.5 0 1 0 15 0 a7.5 7.5 0 1 0 -15 0zM1357.84 460.91 a7.5 7.5 0 1 0 15 0 a7.5 7.5 0 1 0 -15 0zM1357.84 535.91 a7.5 7.5 0 1 0 15 0 a7.5 7.5 0 1 0 -15 0zM1422.79 -26.59 a7.5 7.5 0 1 0 15 0 a7.5 7.5 0 1 0 -15 0zM1487.75 10.91 a7.5 7.5 0 1 0 15 0 a7.5 7.5 0 1 0 -15 0zM1487.75 85.91 a7.5 7.5 0 1 0 15 0 a7.5 7.5 0 1 0 -15 0zM1422.79 123.41 a7.5 7.5 0 1 0 15 0 a7.5 7.5 0 1 0 -15 0zM1357.84 85.91 a7.5 7.5 0 1 0 15 0 a7.5 7.5 0 1 0 -15 0zM1357.84 10.91 a7.5 7.5 0 1 0 15 0 a7.5 7.5 0 1 0 -15 0zM1422.79 198.41 a7.5 7.5 0 1 0 15 0 a7.5 7.5 0 1 0 -15 0zM1487.75 235.91 a7.5 7.5 0 1 0 15 0 a7.5 7.5 0 1 0 -15 0zM1487.75 310.91 a7.5 7.5 0 1 0 15 0 a7.5 7.5 0 1 0 -15 0zM1422.79 348.41 a7.5 7.5 0 1 0 15 0 a7.5 7.5 0 1 0 -15 0zM1422.79 423.41 a7.5 7.5 0 1 0 15 0 a7.5 7.5 0 1 0 -15 0zM1487.75 460.91 a7.5 7.5 0 1 0 15 0 a7.5 7.5 0 1 0 -15 0zM1487.75 535.91 a7.5 7.5 0 1 0 15 0 a7.5 7.5 0 1 0 -15 0zM1422.79 573.41 a7.5 7.5 0 1 0 15 0 a7.5 7.5 0 1 0 -15 0z" fill="#03305d"></path><path d="M40.09 148.87L83.39 173.87L83.39 223.87L40.09 248.87L-3.21 223.87L-3.21 173.87zM40.09 298.87L83.39 323.87L83.39 373.87L40.09 398.87L-3.21 373.87L-3.21 323.87zM40.09 448.87L83.39 473.87L83.39 523.87L40.09 548.87L-3.21 523.87L-3.21 473.87zM126.7 148.87L170 173.87L170 223.87L126.7 248.87L83.39 223.87L83.39 173.87zM256.6 73.87L299.9 98.87L299.9 148.87L256.6 173.87L213.3 148.87L213.3 98.87zM213.3 148.87L256.6 173.87L256.6 223.87L213.3 248.87L170 223.87L170 173.87zM213.3 448.87L256.6 473.87L256.6 523.87L213.3 548.87L170 523.87L170 473.87zM343.21 523.87L386.51 548.87L386.51 598.87L343.21 623.87L299.9 598.87L299.9 548.87zM386.51 -1.13L429.81 23.87L429.81 73.87L386.51 98.87L343.21 73.87L343.21 23.87zM386.51 298.87L429.81 323.87L429.81 373.87L386.51 398.87L343.21 373.87L343.21 323.87zM386.51 448.87L429.81 473.87L429.81 523.87L386.51 548.87L343.21 523.87L343.21 473.87zM473.12 298.87L516.42 323.87L516.42 373.87L473.12 398.87L429.81 373.87L429.81 323.87zM559.72 148.87L603.02 173.87L603.02 223.87L559.72 248.87L516.42 223.87L516.42 173.87zM603.02 223.87L646.33 248.87L646.33 298.87L603.02 323.87L559.72 298.87L559.72 248.87zM559.72 298.87L603.02 323.87L603.02 373.87L559.72 398.87L516.42 373.87L516.42 323.87zM603.02 523.87L646.33 548.87L646.33 598.87L603.02 623.87L559.72 598.87L559.72 548.87zM689.63 73.87L732.93 98.87L732.93 148.87L689.63 173.87L646.33 148.87L646.33 98.87zM646.33 148.87L689.63 173.87L689.63 223.87L646.33 248.87L603.02 223.87L603.02 173.87zM689.63 223.87L732.93 248.87L732.93 298.87L689.63 323.87L646.33 298.87L646.33 248.87zM689.63 373.87L732.93 398.87L732.93 448.87L689.63 473.87L646.33 448.87L646.33 398.87zM689.63 523.87L732.93 548.87L732.93 598.87L689.63 623.87L646.33 598.87L646.33 548.87zM776.23 73.87L819.54 98.87L819.54 148.87L776.23 173.87L732.93 148.87L732.93 98.87zM862.84 73.87L906.14 98.87L906.14 148.87L862.84 173.87L819.54 148.87L819.54 98.87zM862.84 223.87L906.14 248.87L906.14 298.87L862.84 323.87L819.54 298.87L819.54 248.87zM862.84 373.87L906.14 398.87L906.14 448.87L862.84 473.87L819.54 448.87L819.54 398.87zM819.54 448.87L862.84 473.87L862.84 523.87L819.54 548.87L776.23 523.87L776.23 473.87zM906.14 148.87L949.44 173.87L949.44 223.87L906.14 248.87L862.84 223.87L862.84 173.87zM949.44 223.87L992.75 248.87L992.75 298.87L949.44 323.87L906.14 298.87L906.14 248.87zM992.75 -1.13L1036.05 23.87L1036.05 73.87L992.75 98.87L949.44 73.87L949.44 23.87zM992.75 148.87L1036.05 173.87L1036.05 223.87L992.75 248.87L949.44 223.87L949.44 173.87zM1036.05 223.87L1079.35 248.87L1079.35 298.87L1036.05 323.87L992.75 298.87L992.75 248.87zM1036.05 373.87L1079.35 398.87L1079.35 448.87L1036.05 473.87L992.75 448.87L992.75 398.87zM992.75 448.87L1036.05 473.87L1036.05 523.87L992.75 548.87L949.44 523.87L949.44 473.87zM1079.35 148.87L1122.65 173.87L1122.65 223.87L1079.35 248.87L1036.05 223.87L1036.05 173.87zM1079.35 298.87L1122.65 323.87L1122.65 373.87L1079.35 398.87L1036.05 373.87L1036.05 323.87zM1122.65 373.87L1165.95 398.87L1165.95 448.87L1122.65 473.87L1079.35 448.87L1079.35 398.87zM1079.35 448.87L1122.65 473.87L1122.65 523.87L1079.35 548.87L1036.05 523.87L1036.05 473.87zM1122.65 523.87L1165.95 548.87L1165.95 598.87L1122.65 623.87L1079.35 598.87L1079.35 548.87zM1209.26 73.87L1252.56 98.87L1252.56 148.87L1209.26 173.87L1165.95 148.87L1165.95 98.87zM1165.95 298.87L1209.26 323.87L1209.26 373.87L1165.95 398.87L1122.65 373.87L1122.65 323.87zM1165.95 448.87L1209.26 473.87L1209.26 523.87L1165.95 548.87L1122.65 523.87L1122.65 473.87zM1252.56 148.87L1295.86 173.87L1295.86 223.87L1252.56 248.87L1209.26 223.87L1209.26 173.87zM1295.86 223.87L1339.16 248.87L1339.16 298.87L1295.86 323.87L1252.56 298.87L1252.56 248.87zM1252.56 298.87L1295.86 323.87L1295.86 373.87L1252.56 398.87L1209.26 373.87L1209.26 323.87zM1295.86 373.87L1339.16 398.87L1339.16 448.87L1295.86 473.87L1252.56 448.87L1252.56 398.87zM1382.47 73.87L1425.77 98.87L1425.77 148.87L1382.47 173.87L1339.16 148.87L1339.16 98.87zM1382.47 373.87L1425.77 398.87L1425.77 448.87L1382.47 473.87L1339.16 448.87L1339.16 398.87zM1339.16 448.87L1382.47 473.87L1382.47 523.87L1339.16 548.87L1295.86 523.87L1295.86 473.87zM1425.77 298.87L1469.07 323.87L1469.07 373.87L1425.77 398.87L1382.47 373.87L1382.47 323.87zM1469.07 373.87L1512.38 398.87L1512.38 448.87L1469.07 473.87L1425.77 448.87L1425.77 398.87z" stroke="rgba(6, 80, 156, 0.93)" stroke-width="2"></path></g><defs><mask id="SvgjsMask1000"><rect width="1440" height="560" fill="#ffffff"></rect></mask></defs></svg>